<?xml version="1.0" encoding="UTF-8"?>
<!DOCTYPE svg PUBLIC "-//W3C//DTD SVG 1.0//EN" "http://www.w3.org/TR/2001/REC-SVG-20010904/DTD/svg10.dtd">
<!-- Creator: CorelDRAW -->
<svg xmlns="http://www.w3.org/2000/svg" xml:space="preserve" width="297mm" height="210mm" version="1.0" style="shape-rendering:geometricPrecision; text-rendering:geometricPrecision; image-rendering:optimizeQuality; fill-rule:evenodd; clip-rule:evenodd"
viewBox="0 0 29700 21000"
 xmlns:xlink="http://www.w3.org/1999/xlink"
 xmlns:xodm="http://www.corel.com/coreldraw/odm/2003">
 <defs>
  <style type="text/css">
   <![CDATA[
    .fil0 {fill:#38464A}
    .fil1 {fill:#38464A;fill-rule:nonzero}
   ]]>
  </style>
 </defs>
 <g id="Layer_x0020_1">
  <metadata id="CorelCorpID_0Corel-Layer"/>
  <path class="fil0" d="M14085.95 11964.56c55.13,945.74 -513.45,1168.7 -1174.54,962.49 -260.4,-81.23 -339.27,-172.5 -508.62,-265.64 -78.89,94.57 -269.92,319.23 -317.1,462.04 444.6,223.91 616.46,475.85 1347,430.1 1451.04,-90.87 1253.32,-1360.82 1261.17,-2276.73 3.8,-444.09 50.94,-1351.95 -9.64,-1745.46 -76.29,-3.7 -415.09,-12.94 -472.22,-1.98 -141.47,27.15 -92.27,194.91 -104.2,371.11 -259.62,-208.35 -672.57,-726.29 -1471.25,-300.46 -410.55,218.89 -689.28,654.25 -694.29,1323.77 -5.02,671.69 296.59,1086.98 706.55,1312.06 235.23,129.15 537.53,180.81 836,117.25 375.73,-80.02 496.21,-343.87 601.14,-388.55zm-1013.49 -1902.8c-829.4,280.8 -567.74,2055.78 501.07,1709.89 837.95,-271.17 602.57,-2083.53 -501.07,-1709.89z"/>
  <path class="fil0" d="M23822.34 12349.1l645.09 -8.88 11.12 -1403.96 873.12 -1.29c144.25,219.49 725.95,1206.3 802.92,1410.89l760.57 -4.26c-41.72,-101 -159.95,-280.21 -223.53,-387.45l-669.88 -1141.82c1015.21,-266.19 1374.76,-2297.23 -663.71,-2301.43 -509.29,-1.05 -1019.58,-3.78 -1528.75,-2.07l-6.95 3840.27zm650.96 -1996.32c666.99,8.53 1677.79,173.59 1681.02,-628.25 1.46,-362.96 -196.33,-577.98 -529.91,-613.63 -280.63,-30 -843.76,-21.69 -1133.76,-5.52l-17.35 1247.4z"/>
  <path class="fil0" d="M18330.95 9850.27c64.96,165.3 187.71,304.31 281.65,432.72 127.06,-37.69 785.4,-522.55 1374.25,-127.9 366.91,245.9 496.63,892.85 213.98,1327.94 -251.76,387.54 -869.44,508.1 -1251.96,133.78 -155.83,-152.5 -260,-422.4 -179.26,-717.52 79.23,-289.57 229.16,-334.87 398.96,-491.43 -480.74,-64.2 -860.87,46.16 -1002.81,418.34 -258.12,676.8 252.53,1566.01 1229.21,1577.04 300.5,3.39 603.61,-88.73 811.58,-278.98 125.28,-114.6 93.83,-120.35 226.86,-183.32 9.59,376.81 -19.39,1107.3 629.87,1251.74 -4.9,-540.15 -103.72,-2587.28 118.77,-2916.5 263.62,-390.07 815.05,-308.33 1022.54,25.84 248.57,400.31 136.35,866.7 -41.18,1240.33 1006.47,83.06 828.19,-289.08 821.1,-1989.75l-519.95 -2.3 -53.08 205.11c-220.47,-188.89 -375.33,-318.57 -794.89,-298.57 -342.58,16.32 -635.73,175.32 -735.09,376.44l-362.62 -314.52 -15.87 433.43c-103.4,-13.37 -408.78,-464.99 -1001.19,-493.89 -587.01,-28.63 -834.37,182.02 -1170.87,391.97z"/>
  <path class="fil0" d="M15319.41 9854.88c58.34,114.07 215.22,360.12 305.2,431.05 271.78,-278.67 1352.37,-634.22 1384.37,301.48 -449.73,-1.58 -964.36,-45.35 -1352.55,126.33 -323.8,143.21 -574.41,448.7 -518.64,942.55 72.74,644.1 807.24,891.53 1409.14,688.19 259.51,-87.67 314.05,-206.22 498.61,-313.89l11.4 301.81 569.17 12.57c14.81,-464.87 8.52,-930.23 8.88,-1385.72 0.4,-516.47 25.5,-832.19 -257.54,-1158.11 -211.37,-243.38 -600.74,-363.54 -1053.35,-338.79 -449.48,24.59 -711.3,148.89 -1004.69,392.53zm1690.31 1198.46c-282.8,3.04 -743.33,-29.36 -988.39,61.13 -363.89,134.38 -301.81,534.85 -136.9,673.2 203.55,170.76 570.15,153.76 800.45,26.53 278.06,-153.61 316.4,-350.44 324.84,-760.86z"/>
  <path class="fil0" d="M6493 12322.54c171.49,44.87 2112.28,44 2259.73,-4.23l2.33 -558.61 -1601.07 -14.88 4.27 -1058.08c345.69,-49.5 1160.88,47.39 1412.04,-36.01l4.69 -548.61 -1420.82 -11.44 8.41 -980.13 1638.58 -9.99 -4.08 -583.74 -2291.3 -6.8 -12.78 3812.52z"/>
  <path class="fil0" d="M4628.82 10592.9c-605.91,169.1 -914.8,353.66 -1667.82,244.68 182.51,-86.63 1697.66,-345.44 1974.48,-787.53 -281.34,30.26 -657.43,157.34 -843.04,177.31l-111.48 -9.12c171.54,-118.69 533.85,-237.98 741.53,-310.52 456.91,-159.58 403.81,-91.49 639.7,-464.34 -400.76,35.83 -890.6,333.12 -1343.57,377.28l332.7 -974.8c-259.11,36.92 -1066.41,350.05 -1274.03,792.25 -94.23,200.71 -19.9,211.62 -212.71,280.71 -434.12,155.55 -651.91,502.82 -565.29,987.8 207.34,1160.83 1947.65,1021.53 2329.53,-313.72z"/>
  <path class="fil0" d="M9675.45 9882.52l-30.17 -352.38 -538.64 0.62c-76.87,222.84 -29.42,2400.35 -23.27,2808.19 198.95,4.91 436.57,38.19 624.48,-17.74 22.55,-528.91 -66.05,-1698.01 116.28,-2004.74 87.11,-146.53 243.44,-272.57 466.56,-283.98 541.79,-27.73 605.64,363.9 606.26,856.17 0.61,479.52 13.58,974.06 -2.52,1451.72l626.92 1.86c30.2,-1242.96 314.02,-2892.47 -983.1,-2887.48 -348.61,1.35 -681.48,165.83 -862.8,427.76z"/>
  <path class="fil0" d="M2842.79 11801.82c120.5,193.94 478.74,376.57 784.29,457.64 1321.15,350.55 2176.85,-1190.8 1829.77,-1827.74 -159.21,226.06 -282.37,1372.25 -1657.08,1495.39 -442.77,39.67 -588.86,-40.93 -956.98,-125.29z"/>
  <path class="fil0" d="M4336.29 9541.81c186.58,-36.78 1065.49,-280.53 1185.13,-353.31 120.51,-73.31 477.36,-850.27 507.08,-1042.18 -316.01,80.74 -790.52,300.61 -1115.76,434.52 -309.42,127.39 -285.97,76.61 -388.13,390.16 -56.52,173.47 -154.48,397.28 -188.32,570.81z"/>
  <path class="fil0" d="M21415.16 12367.85c671.48,-176.39 286.69,-172.48 1062.51,-14.98 349.1,70.87 847.88,7.97 999.76,-214.89 -441.51,-29.6 -278.29,55.34 -480.78,-12.53 6.91,-4.76 18.91,-17.72 23,-10.24l241.29 -9.54c-225.45,-427.36 -1823.89,-747.82 -1845.78,262.18z"/>
  <path class="fil1" d="M21628.4 13290.07l0 -356.73 -133.21 0 0 -47.41 320.04 0 0 47.41 -133.21 0 0 356.73 -53.62 0zm240.92 0l0 -404.14 80.15 0 95.58 286.08c8.84,26.62 15.24,46.56 19.29,59.83 4.61,-14.68 11.85,-36.31 21.63,-64.82l97.28 -281.09 71.59 0 0 404.14 -51.37 0 0 -338.1 -117.97 338.1 -48.16 0 -116.65 -344.31 0 344.31 -51.37 0z"/>
 </g>
</svg>
